<?xml version="1.0" encoding="UTF-8"?><svg xmlns="http://www.w3.org/2000/svg" xmlns:xlink="http://www.w3.org/1999/xlink" viewBox="0 0 512 512"><defs><style>.af{fill:#4673b8;}.ag{fill:#7fc898;}.ah{fill:#e58025;}.ai{fill:#e73156;}.aj{isolation:isolate;}.ak{fill:#683a8b;}.al{fill:#92c84b;}.am{fill:#cd378e;}.an{fill:#313131;}.ao{fill:#cf348f;}.ap{fill:#f7dc7c;}.aq{fill:#dfc53a;}.ar{fill:#15addb;}.as{fill:#4372b8;}.at{fill:#be2b55;}.au{fill:#f7dd7b;}.av{fill:url(#ac);}.aw{fill:#bc2d54;}.ax{fill:#ddc23c;}.ay{fill:#683989;}.b`{fill:#17addb;}.ba{fill:#e72b56;}.bb{fill:#e27e22;}.bc{fill:#4b4b4d;}.bd{mix-blend-mode:hard-light;opacity:.5;}</style><linearGradient id="ac" x1="-.0002" y1="287.4959" x2="292.6531" y2="287.4959" gradientTransform="matrix(1, 0, 0, 1, 0, 0)" gradientUnits="userSpaceOnUse"><stop offset="0" stop-color="#fff"/><stop offset="1" stop-color="#a7a9ac"/></linearGradient></defs><g class="aj"><g id="a"/><g id="b"/><g id="c"/><g id="d"/><g id="e"><g id="f"/><g id="g"/><g id="h"/><g id="i"/><g id="j"/></g><g id="k"/><g id="l"><g id="m"/><g id="n"/><g id="o"/></g><g id="p"/><g id="q"/><g id="r"/><g id="s"><g id="t"/><g id="u"/><g id="v"/><g id="w"/></g><g id="x"/><g id="y"/><g id="a`"/><g id="aa"><g id="ab"><g><path class="au" d="M201.0018,338.335c-10.7129-18.5562-4.0801-42.2456,14.6528-52.646,45.9263-25.498,73.5908-58.3965,73.5908-94.3105-.4458-43.2391-123.3904-39.5591-160.2311-80.8058-12.4321-14.0193-10.0332-31.9158-2.0335-47.5809h.0005c9.8082-2.0542,19.9299-3.1976,29.9741-3.4585-12.9122-.3298-25.964,.8248-38.5884,3.4585h-.0005c-5.6468,11.2519-9.2341,24.7723-4.4858,36.8584,3.1205,8.1477,9.3396,14.5428,16.4101,19.5776,43.9277,31.3247,150.3403,32.4731,150.3403,71.9507,0,35.9146-27.6646,68.8125-73.5908,94.3105-18.7329,10.4004-25.3657,34.0903-14.6528,52.646l100.2656,173.665h8.6143l-100.2656-173.665Z"/><path class="aq" d="M209.616,338.335c-10.7134-18.5557-4.0801-42.2456,14.6528-52.646,45.9258-25.498,73.5908-58.396,73.5908-94.3105,0-42.894-125.6289-40.5381-160.2314-80.8066-12.4345-14.0238-10.0322-31.91-2.0332-47.5801h.0005c8.3964-1.757,17.063-2.8565,25.6626-3.2925-1.4292-.0723-2.8633-.1299-4.3027-.166-10.0439,.2608-20.1664,1.4044-29.9741,3.4585h-.0005c-5.6504,11.2501-9.2315,24.7734-4.4858,36.8584,2.3028,6.0079,6.2987,11.0947,11.1244,15.3823,39.9053,35.4917,155.626,34.978,155.626,76.146,0,35.9141-27.6646,68.8125-73.5908,94.3105-18.7329,10.4004-25.3657,34.0898-14.6528,52.646l100.2656,173.665h8.6143l-100.2656-173.665Z"/><path class="ah" d="M218.2298,338.335c-10.7129-18.5557-4.0801-42.2456,14.6528-52.646,40.9067-22.7114,67.3066-51.2959,72.5923-82.6514,.2572-6.795-.0926-13.7118-.9331-20.3638-18.805-44.0476-203.6929-31.5081-160.333-119.6821h.0005c6.9844-1.4595,14.1942-2.4772,21.3486-3.0176-1.4282-.1084-2.8608-.2017-4.2998-.2749-8.5994,.4359-17.2665,1.5355-25.6626,3.2925h-.0005c-5.648,11.2512-9.2353,24.7732-4.4858,36.8584,1.5162,3.9457,3.7447,7.4918,6.519,10.7217,34.6025,40.2686,160.2314,37.9126,160.2314,80.8066,0,35.9146-27.665,68.8125-73.5908,94.3105-18.7329,10.4004-25.3662,34.0903-14.6528,52.646l100.2656,173.665h8.6138l-100.2656-173.665Z"/><path class="ba" d="M226.2322,338.335c-10.7134-18.5557-4.0801-42.2456,14.6528-52.646,26.4673-14.6948,46.8525-31.8506,59.3901-50.6216,3.0381-10.2578,4.8306-20.9795,5.1997-32.0298-5.2856,31.3555-31.6855,59.9399-72.5923,82.6514-18.7329,10.4004-25.3657,34.0903-14.6528,52.646l100.2656,173.665h8.0024l-100.2656-173.665Z"/><path class="ba" d="M304.5418,182.6738c-.479-3.7998-1.1221-7.5537-1.9297-11.2539-41.5185-31.5853-189.7337-28.2488-150.4009-108.4282h.0005c5.6747-1.1828,11.5265-2.09,17.3442-2.6641-1.3276-.1333-2.6602-.2515-3.998-.3535-7.1543,.5404-14.3644,1.5581-21.3486,3.0176h-.0005c-43.3354,88.1966,141.486,75.6092,160.333,119.6821Z"/><path class="ao" d="M301.0535,165.0767c-51.9841-25.266-176.2758-28.3977-139.6162-102.085h.0005c4.1749-.8696,8.421-1.588,12.7153-2.1382-1.5254-.1953-3.0576-.3716-4.5972-.5259-5.8178,.5741-11.6695,1.4813-17.3442,2.6641h-.0005c-39.3164,80.1922,108.8551,76.8288,150.4009,108.4282-.4658-2.1328-.9873-4.2466-1.5586-6.3433Z"/><path class="ao" d="M244.1517,353.3931c-7.8291-9.7974-15.1729-20.0098-21.9814-30.6133,2.7773-1.2935,5.4976-2.6729,8.1733-4.1133,.2075-13.2578,7.3052-26.0586,19.7676-32.978,16.6782-9.2593,30.9336-19.4995,42.3447-30.501,3.1519-6.4614,5.7656-13.1855,7.8193-20.1201-12.5376,18.771-32.9229,35.9268-59.3901,50.6216-18.7329,10.4004-25.3662,34.0903-14.6528,52.646l100.2656,173.665h9.2256l-91.5718-158.6069Z"/><path class="ak" d="M258.7249,285.689c9.437-5.2397,18.0889-10.7959,25.9023-16.6226,2.8818-4.4736,5.5-9.1045,7.8286-13.8789-11.4111,11.0015-25.6665,21.2417-42.3447,30.501-12.4624,6.9194-19.5601,19.7202-19.7676,32.978,3.0923-1.665,6.1167-3.4224,9.0645-5.2754,1.7529-11.2964,8.5195-21.7075,19.3169-27.7021Z"/><path class="ak" d="M268.8382,381.231c-8.689-8.8423-16.9302-18.1323-24.6865-27.8379l91.5718,158.6069h8.6143l-75.4995-130.769Z"/><path class="ak" d="M299.8275,160.8374c-56.9704-21.4756-164.6307-29.4546-129.7764-97.8457h.0005c2.7827-.5801,5.5972-1.0854,8.4355-1.5254-1.438-.2231-2.8828-.4263-4.334-.6128-4.2944,.5502-8.5404,1.2685-12.7153,2.1382h-.0005c-36.6542,73.6927,87.6249,76.8131,139.6162,102.085-.3872-1.4209-.7915-2.8359-1.2261-4.2393Z"/><path class="at" d="M298.7366,157.478c-59.3301-19.0843-153.4371-30.1892-120.3774-94.4863h.0005c1.4214-.2964,2.8535-.5679,4.29-.8281-1.3809-.25-2.769-.4814-4.1626-.6973-2.8384,.4399-5.6528,.9453-8.4355,1.5254h-.0005c-34.8539,68.3937,72.8057,76.3683,129.7764,97.8457-.3486-1.1255-.7119-2.2456-1.0908-3.3594Z"/><path class="at" d="M284.6273,269.0664c-7.8135,5.8267-16.4653,11.3828-25.9023,16.6226-10.7974,5.9946-17.564,16.4058-19.3169,27.7021,3.4546-2.1719,6.8003-4.4751,10.041-6.8921,3.0088-8.5371,9.0298-16.061,17.584-20.8101,3.3843-1.8789,6.6562-3.8027,9.8384-5.7603,2.7651-3.5015,5.3506-7.1279,7.7559-10.8623Z"/><path class="at" d="M287.2181,398.6758c-6.3286-5.5981-12.4575-11.4175-18.3799-17.4448l75.4995,130.769h8.3081l-65.4277-113.3242Z"/><path class="as" d="M297.616,154.3208c-59.5739-16.8246-141.5551-31.4501-110.3687-91.2627-1.5239-.3227-3.0576-.6147-4.5977-.8945-1.4365,.2603-2.8687,.5317-4.29,.8281h-.0005c-33.0616,64.298,61.0517,75.403,120.3774,94.4863-.3599-1.0581-.7344-2.1104-1.1206-3.1572Z"/><path class="as" d="M249.449,306.499c10.3599-7.7256,19.5928-16.6558,27.4224-26.5703-3.1821,1.9575-6.4541,3.8813-9.8384,5.7603-8.5542,4.749-14.5752,12.2729-17.584,20.8101Z"/><path class="as" d="M304.3611,412.919c-5.8618-4.5728-11.5791-9.3218-17.1431-14.2432l65.4277,113.3242h8.9199l-57.2046-99.0811Z"/><path class="ar" d="M319.3904,424.0298c-5.1089-3.5757-10.1196-7.2808-15.0293-11.1108l57.2046,99.0811h8.6143l-50.7896-87.9702Z"/><path class="ar" d="M191.9979,72.2334c.8401-2.448,1.859-4.9454,2.9834-7.3452-2.5623-.6686-5.1376-1.2803-7.7339-1.8301-31.1885,59.8137,50.7981,74.4387,110.3687,91.2627-.3462-.9375-.707-1.8687-1.0742-2.7969-54.2129-15.1953-122.001-28.2646-104.5439-79.2905Z"/><path class="ag" d="M333.3826,433.3452c-4.7412-2.9985-9.4058-6.105-13.9922-9.3154l50.7896,87.9702h8.6138l-45.4111-78.6548Z"/><path class="ag" d="M202.056,68.4014c.1792-.4365,.3564-.8721,.5474-1.314-2.5215-.7937-5.0634-1.517-7.6221-2.1992-26.9969,55.577,44.0592,71.1761,101.5605,86.6357-.3545-.896-.7217-1.7861-1.0952-2.6733-53.5649-14.5649-114.3525-29.3521-93.3906-80.4492Z"/><path class="al" d="M346.6038,441.3257c-4.4702-2.5659-8.875-5.2314-13.2212-7.9805l45.4111,78.6548h8.6143l-40.8042-70.6743Z"/><path class="al" d="M210.158,69.6734c-2.4876-.9202-5.0147-1.7883-7.5547-2.5859-22.5887,51.8125,38.6663,67.1734,92.8433,81.7632-.3745-.8882-.7588-1.771-1.1523-2.6499-50.394-13.7109-102.394-29.5039-84.1362-76.5273Z"/><path class="bc" d="M217.6893,72.6778c-2.4751-1.061-4.9863-2.0625-7.5312-3.0044-18.2578,47.0234,33.7422,62.8164,84.1362,76.5273-.4077-.9116-.8252-1.8184-1.2534-2.7197-45.9282-12.8809-89.2793-29.0859-75.3516-70.8032Z"/><path class="bc" d="M359.1932,448.211c-4.2461-2.2163-8.4458-4.5073-12.5894-6.8853l40.8042,70.6743h8.6138l-36.8286-63.7891Z"/><path d="M362.8655,450.1128c-1.23-.624-2.4507-1.2642-3.6724-1.9019l36.8286,63.7891h12.6094v-26.4849c-11.231-13.7617-26.8813-25.8213-45.7656-35.4023Z"/><path d="M217.6893,72.6778c-13.9277,41.7173,29.4233,57.9224,75.3516,70.8032-14.7979-31.1411-41.7202-56.3853-75.3516-70.8032Z"/></g><path class="bd" d="M362.8655,450.1128c-57.1499-28.9429-106.1317-73.4014-140.6953-127.333,46.8756-21.4888,81.8672-67.3445,83.3044-119.7424,2.387-59.8136-38.8806-112.9049-95.3174-133.3638-29.1355-10.8023-61.3964-13.0059-91.7907-6.6819h0c-5.6477,11.2516-9.2338,24.7722-4.4862,36.8584,3.1214,8.1476,9.3393,14.5425,16.4101,19.5776,43.9277,31.3247,150.3408,32.4731,150.3408,71.9507,0,35.9146-27.665,68.8125-73.5908,94.3105-18.7334,10.4004-25.3662,34.0903-14.6533,52.646l100.2656,173.665h115.9785v-26.4849c-11.2314-13.7617-26.8818-25.8213-45.7656-35.4023Z"/><g><path class="b`" d="M100.2899,401.4888l-.4453-.7715c-2.5614,2.2079-5.556,4.3975-8.855,5.1489,3.6554,.948,7.756,.6623,11.2861-.938l-1.9858-3.4395Z"/><path class="al" d="M99.6038,405.8662c1.147,.292,2.3257,.4697,3.5171,.5264l-.8452-1.4644c-.8784,.3906-1.7705,.7051-2.6719,.938Z"/><path class="af" d="M97.0032,395.7959l-.5073,.4106-5.5771,4.5156c-2.5088,2.1598-5.4712,4.3486-8.6948,5.1006,5.2448,1.4487,11.1952,.1712,15.4599-3.356l1.982-1.6044,.1787-.145-2.8413-4.9214Z"/><path class="aw" d="M95.3973,393.0142l-1.0405-1.8022c-2.9707,2.4052-8.9693,7.2624-11.9194,9.6504-2.5338,2.1975-5.5463,4.3201-8.8135,5.043,5.1563,1.3139,10.9682,.0196,15.1396-3.4385l2.1553-1.7446,5.5771-4.5156,.5073-.4106-1.606-2.7817Z"/><path class="ay" d="M91.6126,386.4595c-2.9423,2.3823-9.281,7.5144-12.2637,9.9292l-5.5254,4.4736c-2.5022,2.1654-5.4577,4.261-8.6763,5.0039,6.5019,1.681,12.4085-.5344,17.29-5.0041,2.9417-2.3809,8.9609-7.2547,11.9195-9.6502l-2.7441-4.7524Z"/><path class="am" d="M88.6741,381.3692c-4.9899,4.0398-13.1087,10.6136-18.0986,14.6533l-5.8047,4.6997c-2.4639,2.1169-5.3853,4.2909-8.5405,5.0566,6.5838,1.8249,12.6283-.3649,17.5932-4.9167l5.5255-4.4735c2.9839-2.4174,9.3142-7.54,12.2637-9.9292l-2.9385-5.0903Z"/><path class="ai" d="M86.2938,377.2471l-.1689-.293c-7.1855,5.8177-17.0462,13.8017-24.2197,19.6089l-5.3096,4.2993c-2.5665,2.2307-5.6379,4.3759-8.957,5.0781,5.1109,1.2535,10.8475-.0556,14.977-3.4737l2.1553-1.7446,5.8047-4.6997c4.9903-4.0403,13.1076-10.6124,18.0986-14.6533l-2.3804-4.1221Z"/><path class="bb" d="M83.3812,372.2017c-9.2879,7.5196-20.5829,16.6647-29.8745,24.187l-5.5254,4.4736c-2.5032,2.1664-5.4547,4.257-8.6758,5.0039,6.508,1.6802,12.4046-.5334,17.29-5.0041l5.3097-4.2992c7.1672-5.8022,17.0429-13.7982,24.2197-19.6089l-2.7437-4.7524Z"/><path class="ax" d="M80.637,367.4488c-8.789,7.1159-19.8983,16.1104-28.6983,23.2349-3.1967,2.5883-9.744,7.8898-12.9174,10.459-2.3969,2.0861-5.2557,4.0039-8.3301,4.7237,6.4982,1.6765,12.4113-.5409,17.29-5.0041l5.5255-4.4735c9.2915-7.5223,20.5869-16.6676,29.8745-24.187l-2.7441-4.7529Z"/><path class="ap" d="M77.8929,362.6963c-10.8433,8.7791-23.7265,19.2104-34.5679,27.9873-3.0127,2.4392-9.6046,7.7764-12.5718,10.1787-2.4942,2.1595-5.4637,4.2701-8.6758,5.0039,6.1538,1.6336,12.2942-.4303,16.9438-4.7238,3.1703-2.5662,9.723-7.8723,12.9176-10.4588,8.8008-7.1253,19.9077-16.1176,28.6982-23.2348l-2.7441-4.7524Z"/></g><g><path class="au" d="M371.4793,450.1128c-57.1544-28.9392-106.13-73.402-140.6948-127.333,36.113-16.7182,65.8799-47.8122,77.6176-86.0816,28.8488-96.6103-54.9955-180.2989-151.4467-177.1649,92.3251,1.6669,169.9148,82.9044,143.3198,175.5345-11.3848,38.985-41.4685,70.767-78.1049,87.7121,22.1054,34.4138,49.9522,65.0014,82.1909,90.1392,9.3286,7.2772,19.0141,14.0965,29.0215,20.4263,8.3849,5.3129,16.9961,10.2753,25.8106,14.8657,19.7061,9.6053,37.6857,22.6579,49.438,37.3042v26.4849h8.6143v-26.4849c-11.231-13.7617-26.8813-25.8213-45.7661-35.4023Z"/><path class="aq" d="M380.0936,450.1128c-57.1619-28.9571-106.1338-73.3864-140.6948-127.333,36.1202-16.7141,65.8658-47.8181,77.6176-86.0821,28.839-96.3282-54.7889-180.3195-151.4452-177.1649,93.2466,1.6741,170.8363,84.3798,142.831,177.1658-11.7382,38.2677-41.5042,69.3643-77.6176,86.0812,22.1074,34.4114,49.9473,65.0077,82.1909,90.1396,9.3276,7.277,19.0149,14.096,29.021,20.4258,9.5529,6.0506,19.3841,11.6435,29.4829,16.7676,18.8848,9.5811,34.5352,21.6406,45.7661,35.4023v26.4849h8.6143v-26.4849c-11.231-13.7617-26.8818-25.8213-45.7661-35.4023Z"/><path class="an" d="M466.2342,450.1133c-57.4961-29.1709-105.9678-73.2471-140.6953-127.3335C470.7704,252.5005,412.3858,56.6263,251.7132,59.5332c156.3751,4.9976,206.1777,195.5718,65.2119,263.2466,34.7275,54.0864,83.1992,98.1626,140.6948,127.333,18.8843,9.5811,34.5352,21.6406,45.7661,35.4023v26.4849h8.6138v-26.4849c-11.231-13.7617-26.8813-25.8213-45.7656-35.4019Z"/><path class="bc" d="M466.2342,450.1133c-57.4961-29.1709-105.9678-73.2471-140.6953-127.3335C470.7704,252.5005,412.3858,56.6263,251.7132,59.5332c156.3751,4.9976,206.1777,195.5718,65.2119,263.2466,34.7275,54.0864,83.1992,98.1626,140.6948,127.333,18.8843,9.5811,34.5352,21.6406,45.7661,35.4023v26.4849h8.6138v-26.4849c-11.231-13.7617-26.8813-25.8213-45.7656-35.4019Z"/><path class="ag" d="M449.0062,450.1128c-57.4961-29.1704-105.9678-73.2466-140.6953-127.333C454.1139,252.0354,394.3129,56.3526,234.4822,59.5332c156.064,5.6223,206.8808,193.9769,65.2148,263.2466,34.7275,54.0864,83.1987,98.1626,140.6948,127.333,18.8843,9.5811,34.5352,21.6406,45.7661,35.4023v26.4849h8.6138v-26.4849c-11.231-13.7617-26.8813-25.8213-45.7656-35.4023Z"/><path class="al" d="M457.6199,450.1128c-57.4956-29.1704-105.9673-73.2466-140.6948-127.333C462.4544,252.2557,403.332,56.4837,243.0945,59.5327c155.9456,4.8264,206.4812,195.3538,65.2163,263.2471,34.7275,54.0864,83.1992,98.1626,140.6953,127.333,18.8843,9.5811,34.5347,21.6406,45.7656,35.4023v26.4849h8.6143v-26.4849c-11.231-13.7617-26.8818-25.8213-45.7661-35.4023Z"/><path class="ar" d="M440.3919,450.1128c-57.4961-29.1704-105.9673-73.2466-140.6948-127.333C445.8712,250.6456,385.8594,57.1531,225.868,59.5332c74.1424,1.3371,139.4249,54.3784,147.586,123.1414,7.7687,59.1272-27.7571,115.0805-82.3711,140.1052,34.7275,54.0864,83.1992,98.1626,140.6953,127.333,18.8843,9.5811,34.5347,21.6406,45.7656,35.4023v26.4849h8.6143v-26.4849c-11.231-13.7617-26.8818-25.8213-45.7661-35.4023Z"/><path class="as" d="M431.7781,450.1128c-57.4961-29.1704-105.9678-73.2466-140.6953-127.333,54.6112-25.0229,90.1436-80.9782,82.3713-140.1057-8.1489-71.6995-79.9142-126.1304-156.3561-123.136,79.285,1.3051,149.0399,62.7014,148.4535,139.1879,.2698,53.7737-34.5657,101.6188-83.3646,124.0421l.0054,.0562c34.6688,53.9549,83.1739,98.1366,140.666,127.2886,19.2319,9.7578,35.1059,22.0874,46.3774,36.1665v25.7207h8.3081v-26.4849c-11.231-13.7617-26.8813-25.8213-45.7656-35.4023Z"/><path class="at" d="M422.8582,450.1128c-57.4919-29.1518-105.9975-73.3339-140.666-127.2886l-.0054-.0562c46.7259-21.5844,80.7843-66.1186,83.1771-117.4757,4.7781-82.7988-72.2094-148.7942-156.8709-145.7645,94.6902,1.5665,170.9332,86.1368,142.9791,177.1704-11.7617,38.1868-41.2487,69.2161-77.6173,86.0816,13.5228,21.0487,29.163,40.6365,46.668,58.4517,27.2769,27.7593,58.9702,51.0957,94.0269,68.8813,18.8843,9.5811,34.5352,21.6406,45.7661,35.4023v26.4849h8.9199v-25.7207c-11.2715-14.0791-27.1455-26.4087-46.3774-36.1665Z"/><path class="ak" d="M414.5496,450.1128c-57.4546-29.1351-106.0132-73.3329-140.6948-127.333,36.3696-16.8701,65.8545-47.8919,77.6176-86.0821,28.8682-94.7319-53.7388-180.4638-151.4443-177.1645,94.3567,1.6428,170.7809,85.8252,142.8302,177.165-11.7436,38.2633-41.5015,69.3693-77.6173,86.0816,18.2423,28.3986,40.3728,54.1668,65.6772,76.457,22.6558,19.9463,47.8257,37.0801,75.0176,50.876,18.8843,9.5811,34.5352,21.6406,45.7661,35.4023v26.4849h8.6138v-26.4849c-11.231-13.7617-26.8818-25.8213-45.7661-35.4023Z"/><path class="ao" d="M405.9359,450.1128c-57.3665-29.0705-106.032-73.3364-140.6948-127.333,36.1155-16.7132,65.8742-47.8174,77.6176-86.0821,28.9055-95.2381-54.2105-180.6291-151.7601-177.1542,94.6335,1.8175,171.3,86.6837,142.0598,178.6698-12.045,37.4523-41.3352,67.9204-76.8268,84.4127,.022,.248,.0425,.4961,.0693,.7441,22.2926,34.5799,50.3876,65.2612,82.9165,90.415,17.8657,13.8257,37.0615,26.0132,57.3926,36.3276,19.5806,9.9341,35.6851,22.5322,46.9897,36.9307v24.9565h8.0024v-26.4849c-11.231-13.7617-26.8818-25.8213-45.7661-35.4023Z"/><path class="ba" d="M396.7098,450.1128c-57.0578-28.9128-105.7193-73.0189-140.3091-126.7427-.0269-.248-.0474-.4961-.0693-.7441,35.4914-16.4929,64.7823-46.9596,76.8271-84.4132,30.1344-95.8217-52.7877-181.6746-150.5932-178.6879,93.4518,1.4952,170.6467,84.4018,143.3025,176.3778-11.5638,38.6196-41.4889,70.0515-77.8552,86.8771,22.1079,34.411,49.9481,65.0068,82.1909,90.1392,4.9092,3.8301,9.9199,7.5347,15.0288,11.1108,13.8101,9.666,28.3257,18.397,43.4756,26.083,18.8843,9.5811,34.5347,21.6406,45.7656,35.4023v26.4849h9.2261v-24.9565c-11.3047-14.3984-27.4092-26.9966-46.9897-36.9307Z"/><path class="ah" d="M388.7078,450.1128c-57.2092-28.9776-106.0989-73.378-140.6953-127.333,36.3659-16.8266,66.292-48.2563,77.8554-86.8775,28.1515-95.7136-55.1355-179.561-151.681-176.369,93.4849,1.681,170.8046,84.6428,142.8294,177.1649-11.7523,38.2623-41.4969,69.3688-77.6175,86.0817,25.4517,39.6678,58.6105,74.2461,97.2192,101.25,13.8658,9.6993,28.3455,18.4009,43.4756,26.083,18.8843,9.581,34.5352,21.6406,45.7661,35.4023v26.4849h8.6138v-26.4849c-11.231-13.7617-26.8813-25.8213-45.7656-35.4023Z"/></g><path class="av" d="M192.3875,338.335c-10.7129-18.5557-4.0801-42.2456,14.6528-52.646,45.9263-25.498,73.5908-58.396,73.5908-94.3105-.6418-43.3947-122.0186-38.9815-160.2312-80.8056-12.4347-14.0257-10.0308-31.9101-2.0334-47.5811C53.3631,76.5435,4.1556,127.8115-.0002,190.1616H77.5023v6.9678c-.1418,11.0818-19.1272,49.3029-68.6883,46.4505l-8.6139,.0007-.0508,145.2266c-.0999,15.1568,17.873,22.7331,28.6222,13.6594l1.9819-1.6043,5.0942-4.1245c3.951-3.1979,12.0162-9.7296,15.9883-12.9444,7.7503-6.2772,18.3046-14.8189,26.0571-21.0971,15.2816,26.467,39.9102,69.1273,55.4551,96.0513-22.4175,14.4033-38.6211,32.7446-45.8477,53.2524h205.1528l-100.2656-173.665Z"/></g></g><g id="ad"/><g id="ae"/></g></svg>